<svg xmlns="http://www.w3.org/2000/svg" viewBox="0 0 50 50">
  <path d="M7 9C4.24 9 2 11.24 2 14L2 36C2 38.76 4.24 41 7 41L30.052734 41C30.55967 46.031212 34.842094 50 40 50C45.495455 50 50 45.495455 50 40C50 37.769698 49.249012 35.710017 48 34.041016L48 14C48 11.24 45.76 9 43 9L7 9 z M 4 16L46 16L46 21L4 21L4 16 z M 9 24L25 24L25 26L9 26L9 24 z M 40 32C44.404545 32 48 35.595455 48 40C48 44.404545 44.404545 48 40 48C35.595455 48 32 44.404545 32 40C32 35.595455 35.595455 32 40 32 z M 37 35 A 2 2 0 0 0 37 39 A 2 2 0 0 0 37 35 z M 43.292969 35.292969L35.292969 43.292969L36.707031 44.707031L44.707031 36.707031L43.292969 35.292969 z M 43 41 A 2 2 0 0 0 43 45 A 2 2 0 0 0 43 41 z" fill="#5A5A5A" />
</svg>