<svg xmlns="http://www.w3.org/2000/svg" viewBox="0 0 24 24">
  <path d="M13.879,14.121c-0.586-0.586-6.414-6.414-7-7c-1.172-1.172-1.172-3.071,0-4.243c1.172-1.172,3.071-1.172,4.243,0c0.586,0.586,6.414,6.414,7,7c1.172,1.172,1.172,3.071,0,4.243C16.95,15.293,15.05,15.293,13.879,14.121z" opacity=".35" fill="#37383B" />
  <path d="M18.121,14.121c-0.586,0.586-6.414,6.414-7,7c-1.172,1.172-3.071,1.172-4.243,0c-1.172-1.172-1.172-3.071,0-4.243c0.586-0.586,6.414-6.414,7-7c1.172-1.172,3.071-1.172,4.243,0C19.293,11.05,19.293,12.95,18.121,14.121z" fill="#37383B" />
</svg>